HIERARCHY
ROOT Hips
{
	OFFSET 0.000000 0.000000 0.000000
	CHANNELS 6 Xposition Yposition Zposition Zrotation Yrotation Xrotation 
	JOINT LHipJoint
	{
		OFFSET 0.000000 0.000000 0.000000
		CHANNELS 3 Zrotation Yrotation Xrotation
		JOINT LeftUpLeg
		{
			OFFSET 1.363060 -1.794630 0.839290
			CHANNELS 3 Zrotation Yrotation Xrotation
			JOINT LeftLeg
			{
				OFFSET 2.448110 -6.726130 0.000000
				CHANNELS 3 Zrotation Yrotation Xrotation
				JOINT LeftFoot
				{
					OFFSET 2.562200 -7.039590 0.000000
					CHANNELS 3 Zrotation Yrotation Xrotation
					JOINT LeftToeBase
					{
						OFFSET 0.157640 -0.433110 2.322550
						CHANNELS 3 Zrotation Yrotation Xrotation
						End Site
						{
							OFFSET 0.000000 0.000000 0.000000
						}
					}
				}
			}
		}
	}
	JOINT RHipJoint
	{
		OFFSET 0.000000 0.000000 0.000000
		CHANNELS 3 Zrotation Yrotation Xrotation
		JOINT RightUpLeg
		{
			OFFSET -1.305520 -1.794630 0.839290
			CHANNELS 3 Zrotation Yrotation Xrotation
			JOINT RightLeg
			{
				OFFSET -2.542530 -6.985550 0.000000
				CHANNELS 3 Zrotation Yrotation Xrotation
				JOINT RightFoot
				{
					OFFSET -2.568260 -7.056230 0.000000
					CHANNELS 3 Zrotation Yrotation Xrotation
					JOINT RightToeBase
					{
						OFFSET -0.164730 -0.452590 2.363150
						CHANNELS 3 Zrotation Yrotation Xrotation
						End Site
						{
							OFFSET 0.000000 0.000000 0.000000
						}
					}
				}
			}
		}
	}
}
MOTION
Frames: 22
Frame Time: 0.008333
3.492046 17.206049 1.048529 -177.631149 -72.898463 -172.700860 -11.809602 1.769968 -1.531910 -4.021774 27.826349 -13.056688 -2.871626 -1.049922 -0.225796 0.872713 7.329287 0.447422 1.032301 -0.000000 -36.379900 9.190649 -1.811696 3.972208 1.565674 4.049995 -11.766173 2.726734 1.281235 -1.146895 0.574529 3.895514 2.090611 0.279600 0.000000 -44.152600
3.491335 17.207587 1.052211 -177.500787 -72.537394 -172.805043 -11.825006 1.774748 -1.551797 -4.001554 28.043768 -13.105935 -2.877322 -1.047722 -0.176695 0.887797 7.441793 0.410488 1.040800 0.000001 -36.346099 9.169009 -1.823721 4.044040 1.571811 4.261222 -11.787183 2.747152 1.299158 -1.350177 0.602412 4.081453 2.315104 0.325500 0.000000 -44.133700
3.490964 17.209593 1.055814 -177.416506 -72.185886 -172.881119 -11.843642 1.784953 -1.561674 -3.989298 28.263300 -13.138833 -2.883450 -1.049338 -0.152202 0.900557 7.549265 0.401519 1.052699 -0.000000 -36.317601 9.146563 -1.845410 4.125427 1.569239 4.457649 -11.802471 2.767101 1.316753 -1.561737 0.632379 4.276129 2.550458 0.374000 -0.000000 -44.112100
3.491564 17.211933 1.059267 -177.378273 -71.852503 -172.938768 -11.865939 1.800291 -1.561642 -3.980188 28.483315 -13.148769 -2.889388 -1.054698 -0.152146 0.910439 7.648626 0.422043 1.067900 0.000000 -36.299400 9.123238 -1.877566 4.214229 1.560820 4.632290 -11.803294 2.786346 1.333648 -1.781198 0.664103 4.476693 2.793227 0.424100 -0.000000 -44.084701
3.493535 17.214513 1.062255 -177.385873 -71.548870 -172.982981 -11.891477 1.820252 -1.552745 -3.970693 28.699411 -13.129073 -2.894591 -1.063462 -0.179118 0.916893 7.736406 0.475198 1.086300 0.000001 -36.293000 9.099368 -1.919831 4.308317 1.548082 4.787215 -11.785331 2.803330 1.348618 -1.998120 0.695622 4.666363 3.033326 0.472000 0.000000 -44.052700
3.496987 17.217303 1.064679 -177.420782 -71.283895 -173.027754 -11.919634 1.844757 -1.535202 -3.957447 28.910949 -13.087279 -2.899500 -1.074097 -0.227993 0.919128 7.802723 0.558416 1.106500 0.000001 -36.300501 9.074809 -1.969934 4.405142 1.537455 4.921582 -11.746257 2.817967 1.362463 -2.210944 0.725648 4.829576 3.266138 0.513299 -0.000000 -44.014900
3.502725 17.219927 1.066881 -177.459747 -71.062477 -173.098205 -11.949331 1.873908 -1.509844 -3.930646 29.101535 -13.015717 -2.901823 -1.084482 -0.304994 0.918639 7.853213 0.667209 1.128400 0.000000 -36.327000 9.050801 -2.020952 4.493218 1.539795 5.016212 -11.671001 2.831994 1.377143 -2.431367 0.755202 4.968888 3.495513 0.548000 0.000000 -43.972100
3.510391 17.222555 1.068585 -177.479272 -70.896291 -173.198893 -11.977701 1.905992 -1.478501 -3.893375 29.264397 -12.935306 -2.902647 -1.092573 -0.406905 0.914776 7.876048 0.799766 1.150100 -0.000000 -36.366300 9.028378 -2.067065 4.568717 1.561365 5.077727 -11.570536 2.844657 1.393343 -2.652381 0.781431 5.055680 3.715011 0.568699 0.000000 -43.927500
3.520031 17.225072 1.070066 -177.446949 -70.797107 -173.343787 -12.001687 1.938229 -1.445012 -3.843968 29.383047 -12.858132 -2.901509 -1.096637 -0.535506 0.908169 7.868386 0.950998 1.170400 0.000000 -36.418300 9.009881 -2.100309 4.620690 1.611394 5.095922 -11.446744 2.856922 1.412792 -2.881414 0.803679 5.079691 3.926438 0.572600 0.000000 -43.885600
3.531156 17.227562 1.071487 -177.333528 -70.781396 -173.536540 -12.018270 1.966853 -1.412155 -3.785235 29.434186 -12.798099 -2.897787 -1.096491 -0.697960 0.899655 7.831459 1.119211 1.189300 -0.000000 -36.476100 8.997752 -2.114549 4.639395 1.696819 5.060217 -11.307858 2.869458 1.436854 -3.125357 0.820462 5.031037 4.132174 0.557300 0.000001 -43.851500
3.543347 17.230176 1.073071 -177.119993 -70.863754 -173.776402 -12.025592 1.989102 -1.380189 -3.722759 29.397572 -12.770665 -2.891216 -1.092455 -0.898255 0.889548 7.764020 1.303364 1.206400 -0.000000 -36.534000 8.993407 -2.106138 4.618723 1.820850 4.961688 -11.164341 2.882805 1.466781 -3.389115 0.830433 4.902040 4.334526 0.521200 -0.000000 -43.829600
3.556138 17.233136 1.074984 -176.803791 -71.052635 -174.058708 -12.023619 2.005845 -1.343205 -3.664357 29.255763 -12.786245 -2.881075 -1.085051 -1.140231 0.878349 7.668182 1.504122 1.222001 -0.000000 -36.583200 8.996705 -2.074480 4.558187 1.982145 4.791133 -11.024423 2.897570 1.503780 -3.674501 0.832257 4.691085 4.536882 0.464500 0.000000 -43.824600
3.568880 17.236611 1.077442 -176.392261 -71.345970 -174.377104 -12.013441 2.021577 -1.292176 -3.618057 28.999593 -12.848650 -2.866703 -1.074447 -1.424622 0.866440 7.546269 1.722740 1.236200 -0.000000 -36.618700 9.006808 -2.020966 4.461731 2.174603 4.541857 -10.893103 2.914395 1.548924 -3.979124 0.825201 4.403861 4.740732 0.389000 0.000001 -43.839600
3.581020 17.240935 1.080470 -175.902317 -71.733563 -174.721362 -11.995642 2.041846 -1.217995 -3.592960 28.623775 -12.960165 -2.847268 -1.060625 -1.749651 0.854697 7.405803 1.962117 1.250200 -0.000000 -36.630800 9.023373 -1.947557 4.335603 2.388479 4.211971 -10.778531 2.933570 1.602517 -4.295858 0.809061 4.050521 4.947940 0.297701 -0.000000 -43.875300
3.592006 17.246254 1.083956 -175.358018 -72.196984 -175.072765 -11.969781 2.071088 -1.118354 -3.597069 28.134893 -13.118534 -2.823074 -1.043559 -2.108175 0.843575 7.252275 2.222778 1.264200 0.000000 -36.616900 9.047745 -1.855870 4.184305 2.609765 3.805090 -10.687613 2.954785 1.663922 -4.615085 0.784323 3.648594 5.156078 0.195201 -0.000000 -43.932901
3.601124 17.252782 1.087575 -174.790597 -72.713024 -175.401905 -11.935127 2.111935 -0.993516 -3.639023 27.544122 -13.325146 -2.794984 -1.023950 -2.488202 0.833712 7.094886 2.505379 1.279400 -0.000000 -36.569799 9.080750 -1.747576 4.012606 2.824939 3.336116 -10.676581 2.975746 1.724706 -4.833151 0.749768 3.217728 5.311076 0.086000 -0.000001 -44.007700
3.607571 17.260613 1.090722 -174.251966 -73.257642 -175.666507 -11.892541 2.167082 -0.841970 -3.727083 26.872739 -13.577421 -2.764772 -1.003722 -2.872311 0.825184 6.941700 2.807427 1.296501 -0.000000 -36.486200 9.120307 -1.624839 3.826657 3.022595 2.833900 -10.924517 2.987850 1.754256 -4.571439 0.700177 2.785454 5.203187 -0.025100 0.000000 -44.094100
3.610898 17.269750 1.092786 -173.831902 -73.805357 -175.814922 -11.846781 2.243259 -0.656019 -3.865815 26.155424 -13.857207 -2.734317 -0.983804 -3.240545 0.818362 6.802367 3.124609 1.316300 -0.000000 -36.363800 9.165110 -1.507455 3.660548 3.172854 2.304184 -11.178332 2.997728 1.790345 -4.351595 0.653159 2.365480 5.121257 -0.133000 0.000000 -44.184999
3.610990 17.280009 1.093318 -173.628975 -74.355711 -175.812279 -11.806724 2.346361 -0.418120 -4.052792 25.433248 -14.137345 -2.706045 -0.967644 -3.564838 0.812500 6.682628 3.446968 1.339000 -0.000000 -36.203500 9.205028 -1.418661 3.555283 3.258539 1.768877 -11.407012 3.003043 1.830047 -4.184675 0.610846 1.974961 5.069710 -0.233599 0.000000 -44.269500
3.608762 17.290957 1.092312 -173.710227 -74.912319 -175.619279 -11.779251 2.462153 -0.154390 -4.271786 24.754557 -14.378888 -2.684526 -0.959162 -3.823668 0.805559 6.580914 3.762584 1.363100 0.000000 -36.014100 9.234428 -1.370447 3.514351 3.269468 1.251181 -11.578864 3.000166 1.866569 -4.080695 0.574583 1.635084 5.048740 -0.321099 0.000000 -44.342500
3.604476 17.302044 1.089578 -174.060799 -75.435121 -175.167837 -11.761564 2.561821 0.083725 -4.518734 24.118811 -14.612462 -2.670888 -0.958542 -3.993549 0.801227 6.526539 4.044233 1.391900 -0.000000 -35.800099 9.254810 -1.348566 3.502673 3.212334 0.801358 -11.731551 2.989431 1.897977 -4.048663 0.542711 1.342028 5.056521 -0.395800 0.000000 -44.387600
3.599602 17.312560 1.085406 -174.680199 -75.832045 -174.450433 -11.753692 2.632089 0.244461 -4.766917 23.588915 -14.793329 -2.663704 -0.956506 -4.069376 0.800958 6.521562 4.275391 1.423000 0.000001 -35.581800 9.270445 -1.330321 3.477074 3.090855 0.447218 -11.835689 2.972009 1.920051 -4.075559 0.518623 1.126416 5.090213 -0.450400 -0.000001 -44.411700
